<svg xmlns="http://www.w3.org/2000/svg" version="1.1" xmlns:xlink="http://www.w3.org/1999/xlink" xmlns:svgjs="http://svgjs.dev/svgjs" width="1000" height="1000" viewBox="0 0 1000 1000"><rect width="1000" height="1000" fill="#ffffff"></rect><g transform="matrix(0.7,0,0,0.7,149.84897959183667,150.19913061224486)"><svg viewBox="0 0 343 343" data-background-color="#ffffff" preserveAspectRatio="xMidYMid meet" height="999" width="1000" xmlns="http://www.w3.org/2000/svg" xmlns:xlink="http://www.w3.org/1999/xlink"><g id="tight-bounds" transform="matrix(1,0,0,1,0.0740000000000407,0.07400000000001228)"><svg viewBox="0 0 342.85155851775386 342.85155851775386" height="342.85155851775386" width="342.85155851775386"><g><svg></svg></g><g><svg viewBox="0 0 342.85155851775386 342.85155851775386" height="342.85155851775386" width="342.85155851775386"><g><path d="M0 171.426c0-94.676 76.75-171.426 171.426-171.426 94.676 0 171.426 76.75 171.426 171.426 0 94.676-76.75 171.426-171.426 171.426-94.676 0-171.426-76.75-171.426-171.426zM171.426 341.276c93.806 0 169.85-76.045 169.85-169.85 0-93.806-76.045-169.85-169.85-169.851-93.806 0-169.85 76.045-169.851 169.851 0 93.806 76.045 169.85 169.851 169.85z" data-fill-palette-color="tertiary" fill="#000000" stroke="transparent"></path><ellipse rx="164.56874808852186" ry="164.56874808852186" cx="171.42577925887693" cy="171.42577925887693" fill="#000000" stroke="transparent" stroke-width="0" fill-opacity="1" data-fill-palette-color="tertiary"></ellipse></g><g transform="matrix(1,0,0,1,64.84655864529837,130.78886409276703)"><svg viewBox="0 0 213.1584412271571 81.27383033221983" height="81.27383033221983" width="213.1584412271571"><g><svg viewBox="0 0 213.1584412271571 81.27383033221983" height="81.27383033221983" width="213.1584412271571"><g><svg viewBox="0 0 213.1584412271571 81.27383033221983" height="81.27383033221983" width="213.1584412271571"><g transform="matrix(1,0,0,1,0,48.88514832451793)"><svg viewBox="0 0 213.1584412271571 32.3886820077019" height="32.3886820077019" width="213.1584412271571"><g id="textblocktransform"><svg viewBox="0 0 213.1584412271571 32.3886820077019" height="32.3886820077019" width="213.1584412271571" id="textblock"><g><svg viewBox="0 0 213.1584412271571 17.468907427582202" height="17.468907427582202" width="213.1584412271571"><g transform="matrix(1,0,0,1,0,0)"><svg width="213.1584412271571" viewBox="1.2000000476837158 -37.099998474121094 564.3099975585938 46.25" height="17.468907427582202" data-palette-color="#ffffff"><path d="M20.65 1L20.65 1Q11.65 1 6.43-3.58 1.2-8.15 1.2-16.5L1.2-16.5Q1.2-21.6 2.88-25.45 4.55-29.3 7.6-31.6L7.6-31.6Q13.65-36.15 23.55-36.15L23.55-36.15Q29.95-36.15 36.35-34.4L36.35-34.4Q38.8-33.6 38.8-30.45L38.8-30.45Q38.8-26.15 36.1-26.15L36.1-26.15Q35.65-26.15 33.15-26.55 30.65-26.95 29.65-26.95L29.65-26.95Q26.1-26.95 24.18-24.48 22.25-22 22.25-18.57 22.25-15.15 24.05-12.55 25.85-9.95 28.95-9.85L28.95-9.85Q31.05-9.75 36.4-9.75L36.4-9.75Q39-9.75 39.25-7.3L39.25-7.3Q39.4-6.4 39.4-5.48 39.4-4.55 39.25-3.6L39.25-3.6Q38.95-1.8 36.45-0.98 33.95-0.15 29.25 0.43 24.55 1 20.65 1ZM47.3-25.45L47.3-25.45 57.05-25.45Q58.75-25.45 59.4-24.73 60.05-24 60.05-22.55L60.05-22.55 60.05-20.75Q62.85-26.05 69.15-26.05L69.15-26.05Q71.25-26.05 72.6-24.7 73.95-23.35 73.95-21.1 73.95-18.85 72.75-16.63 71.55-14.4 69.4-14.4L69.4-14.4Q68.4-14.4 66.6-15.43 64.8-16.45 63.7-16.45 62.6-16.45 61.42-15.65 60.25-14.85 60.25-13L60.25-13Q60.25-4.95 59.95-2.35L59.95-2.35Q59.8-1.5 59.1-0.85 58.4-0.2 56.62-0.08 54.85 0.05 53.1 0.05 51.35 0.05 47.15-0.15L47.15-0.15Q45.95-0.2 45.25-0.85 44.55-1.5 44.45-2.35L44.45-2.35Q44.1-5.6 44.1-12.3 44.1-19 44.3-21.48 44.5-23.95 45.05-24.7 45.6-25.45 47.3-25.45ZM79.45 1.95L80.55 1.95Q87.15 1.95 87.15 0L87.15 0Q87.15-0.65 86.35-1.95L86.35-1.95Q82.7-7.65 75.55-21.6L75.55-21.6Q75-22.75 75-23.4L75-23.4Q75-25.45 77.05-25.45L77.05-25.45 88.05-25.45Q89.65-25.45 90.47-24.95 91.3-24.45 92.05-23.05L92.05-23.05 96.7-14.35Q97-13.75 97.55-13.75 98.1-13.75 98.4-14.35L98.4-14.35 103.2-24.3Q103.65-25.3 104.25-25.4L104.25-25.4Q104.45-25.4 105-25.45L105-25.45 110.25-25.45Q110.95-25.45 111.25-24.8L111.25-24.8Q111.34-24.5 111.34-24.13 111.34-23.75 110.97-23.03 110.59-22.3 107.2-15.05 103.8-7.8 102.02-4.4 100.25-1 99.52 0.25 98.8 1.5 97.6 3.23 96.4 4.95 95.3 5.83 94.2 6.7 92.55 7.6L92.55 7.6Q89.65 9.15 85.12 9.15 80.6 9.15 79.15 8.38 77.7 7.6 77.7 5L77.7 5Q77.7 3.75 78.17 2.85 78.65 1.95 79.45 1.95L79.45 1.95ZM126.34-6.55L126.34-6.55Q126.34-7.95 125.17-8.75 123.99-9.55 122.32-9.98 120.64-10.4 118.94-10.98 117.24-11.55 116.07-12.98 114.89-14.4 114.89-16.75L114.89-16.75Q114.89-26.05 129.34-26.05L129.34-26.05Q135.54-26.05 139.29-23.95L139.29-23.95Q140.49-23.3 140.99-22.73 141.49-22.15 141.49-20.7 141.49-19.25 140.92-18.53 140.34-17.8 139.77-17.8 139.19-17.8 137.27-18.93 135.34-20.05 133.29-20.1L133.29-20.1Q131.64-20.1 131.64-18.45L131.64-18.45Q131.64-17.35 132.79-16.7 133.94-16.05 135.59-15.58 137.24-15.1 138.89-14.43 140.54-13.75 141.69-12.18 142.84-10.6 142.84-8.2L142.84-8.2Q142.84 1.1 128.39 1.1L128.39 1.1Q121.34 1.1 116.89-0.95L116.89-0.95Q115.54-1.5 114.94-2.08 114.34-2.65 114.34-4.17 114.34-5.7 114.97-6.35 115.59-7 116.02-7 116.44-7 118.89-5.9 121.34-4.8 123.84-4.8 126.34-4.8 126.34-6.55ZM149.94-11.55L149.94-18.2Q149.94-19 148.84-19L148.84-19Q146.89-19 146.54-20.3L146.54-20.3Q146.34-20.95 146.34-22.3 146.34-23.65 146.72-24.23 147.09-24.8 148.17-25.08 149.24-25.35 150.12-26.03 150.99-26.7 153.72-29 156.44-31.3 157.52-32 158.59-32.7 160.19-32.7L160.19-32.7 162.69-32.7Q164.44-32.7 165.04-32.27 165.64-31.85 165.64-30.95L165.64-30.95 165.64-26.2Q165.64-25.15 166.54-25.15L166.54-25.15 171.89-25.15Q173.19-25.15 173.77-24.6 174.34-24.05 174.34-22.08 174.34-20.1 173.74-19.55 173.14-19 171.94-19L171.94-19 166.74-19Q166.04-19 165.84-18.65 165.64-18.3 165.64-17.65L165.64-17.65 165.64-11.65Q165.74-9.95 166.92-8.8 168.09-7.65 170.24-7.65L170.24-7.65Q171.29-7.65 172.84-8.22 174.39-8.8 174.94-8.8L174.94-8.8Q176.29-8.8 176.29-4.8L176.29-4.8Q176.29-1.9 174.74-1.3L174.74-1.3Q173.14-0.75 170.24-0.4 167.34-0.05 164.44-0.05 161.54-0.05 158.92-0.53 156.29-1 154.14-2.2L154.14-2.2Q149.94-4.65 149.94-11.55L149.94-11.55ZM198.49-26.25L198.49-26.25Q214.79-26.25 214.94-15.65L214.94-15.65Q215.04-11.15 215.04-7.4 215.04-3.65 214.99-2.35 214.94-1.05 214.31-0.48 213.69 0.1 211.89 0.1L211.89 0.1 201.29 0.1Q199.69 0.1 199.09-0.48 198.49-1.05 198.44-2.2L198.44-2.2Q198.44-2.25 198.41-2.38 198.39-2.5 198.39-2.6L198.39-2.6Q195.09 0.8 189.39 0.8L189.39 0.8Q185.44 0.8 182.66-1.18 179.89-3.15 179.89-6.63 179.89-10.1 181.86-12.18 183.84-14.25 186.56-15 189.29-15.75 192.41-15.75 195.54-15.75 198.54-15.15L198.54-15.15 198.54-15.35Q198.54-17.85 197.56-18.95 196.59-20.05 194.41-20.05 192.24-20.05 190.79-19.68 189.34-19.3 188.59-18.9L188.59-18.9Q186.54-17.7 185.74-17.7 184.94-17.7 184.31-18.45 183.69-19.2 183.69-20.78 183.69-22.35 184.26-22.95 184.84-23.55 186.09-24.15L186.09-24.15Q190.44-26.25 198.49-26.25ZM196.14-5.8L196.14-5.8Q198.34-5.8 198.39-6.65L198.39-6.65Q198.49-8.3 198.49-11L198.49-11Q198.49-12.05 196.89-12.05 195.29-12.05 194.29-11.28 193.29-10.5 193.29-9 193.29-7.5 194.11-6.65 194.94-5.8 196.14-5.8ZM224.29-36.55L224.29-36.55 233.89-36.55Q235.54-36.55 236.09-35.77 236.64-35 236.79-33.3L236.79-33.3Q237.09-27.3 237.09-16.73 237.09-6.15 236.69-2.15L236.69-2.15Q236.59-1.35 235.89-0.7 235.19-0.05 233.41 0.08 231.64 0.2 229.24 0.2 226.84 0.2 224.94 0.1L224.94 0.1Q221.69-0.15 221.54-2.15L221.54-2.15Q221.04-6.5 221.04-17.57 221.04-28.65 221.44-33.3L221.44-33.3Q221.59-35 222.11-35.77 222.64-36.55 224.29-36.55ZM279.88-12.6L279.88-12.6 279.68-2.95Q279.68 3.95 274.13 6.45L274.13 6.45Q269.18 8.7 260.23 8.7L260.23 8.7Q258.63 8.7 258.11 7.73 257.58 6.75 257.58 4.38 257.58 2 259.43 1.8L259.43 1.8Q264.03 1.25 264.03-3.1L264.03-3.1 263.98-22Q263.98-23.7 264.58-24.5 265.18-25.3 266.93-25.3L266.93-25.3 276.68-25.3Q278.43-25.3 279.01-24.53 279.58-23.75 279.68-22L279.68-22Q279.88-17.75 279.88-12.6ZM272.33-37.1L272.33-37.1Q275.63-37.1 277.31-35.77 278.98-34.45 278.98-32.15L278.98-32.15Q278.98-26.75 271.78-26.75L271.78-26.75Q268.88-26.75 266.83-28 264.78-29.25 264.78-31.75L264.78-31.75Q264.78-37.1 272.33-37.1ZM292.78-23.93Q295.08-25.05 297.5-25.55 299.93-26.05 303.5-26.05 307.08-26.05 310.33-25.18 313.58-24.3 315.18-22.8L315.18-22.8Q317.98-20.05 317.98-16.35L317.98-16.35Q317.98-10.55 308.18-10.55L308.18-10.55Q304.73-10.55 301.03-11.2L301.03-11.2Q301.18-7.9 302.25-6.55 303.33-5.2 306.08-5.2 308.83-5.2 310.63-5.8 312.43-6.4 313.53-7.03 314.63-7.65 315.4-7.65 316.18-7.65 316.73-6.95L316.73-6.95Q317.58-6.05 317.58-4.48 317.58-2.9 316.95-2.33 316.33-1.75 314.98-1.2L314.98-1.2Q310.23 0.8 301.48 0.8L301.48 0.8Q294.23 0.8 289.55-2.68 284.88-6.15 284.88-12.05L284.88-12.05Q284.88-14.9 285.93-17.28 286.98-19.65 288.73-21.23 290.48-22.8 292.78-23.93ZM304.38-20.35L304.38-20.35Q301.33-20.35 301.08-15.4L301.08-15.4Q303.48-15.2 303.58-15.2L303.58-15.2Q306.88-15.2 306.88-17.4L306.88-17.4Q306.88-20.35 304.38-20.35ZM369.58-25.4L374.93-25.4Q375.93-25.4 375.93-24.15L375.93-24.15Q375.93-23.75 375.5-22.55 375.08-21.35 373.65-17.23 372.23-13.1 371.53-11.2L371.53-11.2Q369.58-5.9 367.38-1.6L367.38-1.6Q366.68-0.3 364.83 0.4 362.98 1.1 360.53 1.1 358.08 1.1 355.7 0.38 353.33-0.35 352.53-1.88 351.73-3.4 350.48-6.5 349.23-9.6 348.98-10.1L348.98-10.1Q346.43-3.2 345.65-1.75 344.88-0.3 343.03 0.4 341.18 1.1 338.73 1.1 336.28 1.1 333.9 0.38 331.53-0.35 330.83-1.7L330.83-1.7Q326.58-9.9 322.23-21.6L322.23-21.6Q321.78-22.85 321.78-23.7L321.78-23.7Q321.78-25.45 323.73-25.45L323.73-25.45 334.23-25.45Q336.03-25.45 336.98-24.98 337.93-24.5 338.23-23.05L338.23-23.05 340.48-14.35Q340.63-13.75 341.3-13.75 341.98-13.75 342.18-14.35L342.18-14.35 346.38-23.2Q347.28-25.5 349.43-25.5L349.43-25.5 354.83-25.5Q356.53-25.5 357.4-25.03 358.28-24.55 358.83-23.1L358.83-23.1 362.28-14.35Q362.48-13.75 363.13-13.75 363.78-13.75 363.98-14.35L363.98-14.35 367.88-24.25Q368.18-25 368.55-25.23 368.93-25.45 369.58-25.4L369.58-25.4ZM386.87-23.93Q389.17-25.05 391.6-25.55 394.02-26.05 397.6-26.05 401.17-26.05 404.42-25.18 407.67-24.3 409.27-22.8L409.27-22.8Q412.07-20.05 412.07-16.35L412.07-16.35Q412.07-10.55 402.27-10.55L402.27-10.55Q398.82-10.55 395.12-11.2L395.12-11.2Q395.27-7.9 396.35-6.55 397.42-5.2 400.17-5.2 402.92-5.2 404.72-5.8 406.52-6.4 407.62-7.03 408.72-7.65 409.5-7.65 410.27-7.65 410.82-6.95L410.82-6.95Q411.67-6.05 411.67-4.48 411.67-2.9 411.05-2.33 410.42-1.75 409.07-1.2L409.07-1.2Q404.32 0.8 395.57 0.8L395.57 0.8Q388.32 0.8 383.65-2.68 378.97-6.15 378.97-12.05L378.97-12.05Q378.97-14.9 380.02-17.28 381.07-19.65 382.82-21.23 384.57-22.8 386.87-23.93ZM398.47-20.35L398.47-20.35Q395.42-20.35 395.17-15.4L395.17-15.4Q397.57-15.2 397.67-15.2L397.67-15.2Q400.97-15.2 400.97-17.4L400.97-17.4Q400.97-20.35 398.47-20.35ZM420.32-36.55L420.32-36.55 429.92-36.55Q431.57-36.55 432.12-35.77 432.67-35 432.82-33.3L432.82-33.3Q433.12-27.3 433.12-16.73 433.12-6.15 432.72-2.15L432.72-2.15Q432.62-1.35 431.92-0.7 431.22-0.05 429.45 0.08 427.67 0.2 425.27 0.2 422.87 0.2 420.97 0.1L420.97 0.1Q417.72-0.15 417.57-2.15L417.57-2.15Q417.07-6.5 417.07-17.57 417.07-28.65 417.47-33.3L417.47-33.3Q417.62-35 418.15-35.77 418.67-36.55 420.32-36.55ZM442.37-36.55L442.37-36.55 451.97-36.55Q453.62-36.55 454.17-35.77 454.72-35 454.87-33.3L454.87-33.3Q455.17-27.3 455.17-16.73 455.17-6.15 454.77-2.15L454.77-2.15Q454.67-1.35 453.97-0.7 453.27-0.05 451.49 0.08 449.72 0.2 447.32 0.2 444.92 0.2 443.02 0.1L443.02 0.1Q439.77-0.15 439.62-2.15L439.62-2.15Q439.12-6.5 439.12-17.57 439.12-28.65 439.52-33.3L439.52-33.3Q439.67-35 440.19-35.77 440.72-36.55 442.37-36.55ZM468.07-23.93Q470.37-25.05 472.79-25.55 475.22-26.05 478.79-26.05 482.37-26.05 485.62-25.18 488.87-24.3 490.47-22.8L490.47-22.8Q493.27-20.05 493.27-16.35L493.27-16.35Q493.27-10.55 483.47-10.55L483.47-10.55Q480.02-10.55 476.32-11.2L476.32-11.2Q476.47-7.9 477.54-6.55 478.62-5.2 481.37-5.2 484.12-5.2 485.92-5.8 487.72-6.4 488.82-7.03 489.92-7.65 490.69-7.65 491.47-7.65 492.02-6.95L492.02-6.95Q492.87-6.05 492.87-4.48 492.87-2.9 492.24-2.33 491.62-1.75 490.27-1.2L490.27-1.2Q485.52 0.8 476.77 0.8L476.77 0.8Q469.52 0.8 464.84-2.68 460.17-6.15 460.17-12.05L460.17-12.05Q460.17-14.9 461.22-17.28 462.27-19.65 464.02-21.23 465.77-22.8 468.07-23.93ZM479.67-20.35L479.67-20.35Q476.62-20.35 476.37-15.4L476.37-15.4Q478.77-15.2 478.87-15.2L478.87-15.2Q482.17-15.2 482.17-17.4L482.17-17.4Q482.17-20.35 479.67-20.35ZM501.46-25.45L501.46-25.45 511.21-25.45Q512.91-25.45 513.56-24.73 514.21-24 514.21-22.55L514.21-22.55 514.21-20.75Q517.01-26.05 523.31-26.05L523.31-26.05Q525.41-26.05 526.76-24.7 528.11-23.35 528.11-21.1 528.11-18.85 526.91-16.63 525.71-14.4 523.56-14.4L523.56-14.4Q522.56-14.4 520.76-15.43 518.96-16.45 517.86-16.45 516.76-16.45 515.59-15.65 514.41-14.85 514.41-13L514.41-13Q514.41-4.95 514.11-2.35L514.11-2.35Q513.96-1.5 513.26-0.85 512.56-0.2 510.79-0.08 509.01 0.05 507.26 0.05 505.51 0.05 501.31-0.15L501.31-0.15Q500.11-0.2 499.41-0.85 498.71-1.5 498.61-2.35L498.61-2.35Q498.26-5.6 498.26-12.3 498.26-19 498.46-21.48 498.66-23.95 499.21-24.7 499.76-25.45 501.46-25.45ZM533.61 1.95L534.71 1.95Q541.31 1.95 541.31 0L541.31 0Q541.31-0.65 540.51-1.95L540.51-1.95Q536.86-7.65 529.71-21.6L529.71-21.6Q529.16-22.75 529.16-23.4L529.16-23.4Q529.16-25.45 531.21-25.45L531.21-25.45 542.21-25.45Q543.81-25.45 544.64-24.95 545.46-24.45 546.21-23.05L546.21-23.05 550.86-14.35Q551.16-13.75 551.71-13.75 552.26-13.75 552.56-14.35L552.56-14.35 557.36-24.3Q557.81-25.3 558.41-25.4L558.41-25.4Q558.61-25.4 559.16-25.45L559.16-25.45 564.41-25.45Q565.11-25.45 565.41-24.8L565.41-24.8Q565.51-24.5 565.51-24.13 565.51-23.75 565.14-23.03 564.76-22.3 561.36-15.05 557.96-7.8 556.19-4.4 554.41-1 553.69 0.25 552.96 1.5 551.76 3.23 550.56 4.95 549.46 5.83 548.36 6.7 546.71 7.6L546.71 7.6Q543.81 9.15 539.29 9.15 534.76 9.15 533.31 8.38 531.86 7.6 531.86 5L531.86 5Q531.86 3.75 532.34 2.85 532.81 1.95 533.61 1.95L533.61 1.95Z" opacity="1" transform="matrix(1,0,0,1,0,0)" fill="#ffffff" class="undefined-text-0" data-fill-palette-color="quaternary" id="text-0"></path></svg></g></svg></g><g transform="matrix(1,0,0,1,0,21.5928972174561)"><svg viewBox="0 0 213.1584412271571 10.7957847902458" height="10.7957847902458" width="213.1584412271571"><g transform="matrix(1,0,0,1,0,0)"><svg width="213.1584412271571" viewBox="-1.5 -39.849998474121094 1002.0399780273438 50.75" height="10.7957847902458" data-palette-color="#ffffff"><path d="M10.2-26.45L10.2-2.35Q10.2 1.55 9.08 4.03 7.95 6.5 5.9 8 3.85 9.5 0.55 10.85L0.55 10.85-1.5 6.2Q0.45 5.3 1.55 4.42 2.65 3.55 3.23 2.05 3.8 0.55 3.8-1.95L3.8-1.95 3.8-26.45 10.2-26.45ZM6.95-39.85Q8.75-39.85 9.88-38.73 11-37.6 11-35.95L11-35.95Q11-34.3 9.88-33.2 8.75-32.1 6.95-32.1L6.95-32.1Q5.2-32.1 4.08-33.2 2.95-34.3 2.95-35.95L2.95-35.95Q2.95-37.6 4.08-38.73 5.2-39.85 6.95-39.85L6.95-39.85ZM138.72-13.85Q138.72-13.35 138.57-11.25L138.57-11.25 121.97-11.25Q122.27-7.4 123.97-5.75 125.67-4.1 128.47-4.1L128.47-4.1Q130.22-4.1 131.77-4.67 133.32-5.25 135.07-6.45L135.07-6.45 137.72-2.8Q133.32 0.75 127.92 0.75L127.92 0.75Q121.87 0.75 118.6-2.95 115.32-6.65 115.32-13.05L115.32-13.05Q115.32-17.1 116.72-20.33 118.12-23.55 120.77-25.38 123.42-27.2 127.07-27.2L127.07-27.2Q132.62-27.2 135.67-23.68 138.72-20.15 138.72-13.85L138.72-13.85ZM132.37-15.4L132.37-15.7Q132.37-22.65 127.22-22.65L127.22-22.65Q124.87-22.65 123.55-20.93 122.22-19.2 121.97-15.4L121.97-15.4 132.37-15.4ZM269.75-26.45L275.9-26.45 270.15 0 262.15 0 258.15-20.75 254.05 0 246.2 0 240.35-26.45 246.75-26.45 250.45-4.7 255.05-26.45 261.6-26.45 265.8-4.7 269.75-26.45ZM401.12-13.85Q401.12-13.35 400.97-11.25L400.97-11.25 384.37-11.25Q384.67-7.4 386.37-5.75 388.07-4.1 390.87-4.1L390.87-4.1Q392.62-4.1 394.17-4.67 395.72-5.25 397.47-6.45L397.47-6.45 400.12-2.8Q395.72 0.75 390.32 0.75L390.32 0.75Q384.27 0.75 381-2.95 377.72-6.65 377.72-13.05L377.72-13.05Q377.72-17.1 379.12-20.33 380.52-23.55 383.17-25.38 385.82-27.2 389.47-27.2L389.47-27.2Q395.02-27.2 398.07-23.68 401.12-20.15 401.12-13.85L401.12-13.85ZM394.77-15.4L394.77-15.7Q394.77-22.65 389.62-22.65L389.62-22.65Q387.27-22.65 385.95-20.93 384.62-19.2 384.37-15.4L384.37-15.4 394.77-15.4ZM512.24 0.75Q509.19 0.75 507.47-1.03 505.74-2.8 505.74-6.05L505.74-6.05 505.74-37.05 512.14-37.75 512.14-6.25Q512.14-4.4 513.64-4.4L513.64-4.4Q514.39-4.4 515.14-4.65L515.14-4.65 516.49-0.15Q514.49 0.75 512.24 0.75L512.24 0.75ZM626.12 0.75Q623.07 0.75 621.34-1.03 619.62-2.8 619.62-6.05L619.62-6.05 619.62-37.05 626.02-37.75 626.02-6.25Q626.02-4.4 627.52-4.4L627.52-4.4Q628.27-4.4 629.02-4.65L629.02-4.65 630.37-0.15Q628.37 0.75 626.12 0.75L626.12 0.75ZM755.44-13.85Q755.44-13.35 755.29-11.25L755.29-11.25 738.69-11.25Q738.99-7.4 740.69-5.75 742.39-4.1 745.19-4.1L745.19-4.1Q746.94-4.1 748.49-4.67 750.04-5.25 751.79-6.45L751.79-6.45 754.44-2.8Q750.04 0.75 744.64 0.75L744.64 0.75Q738.59 0.75 735.32-2.95 732.04-6.65 732.04-13.05L732.04-13.05Q732.04-17.1 733.44-20.33 734.84-23.55 737.49-25.38 740.14-27.2 743.79-27.2L743.79-27.2Q749.34-27.2 752.39-23.68 755.44-20.15 755.44-13.85L755.44-13.85ZM749.09-15.4L749.09-15.7Q749.09-22.65 743.94-22.65L743.94-22.65Q741.59-22.65 740.27-20.93 738.94-19.2 738.69-15.4L738.69-15.4 749.09-15.4ZM873.36-27.15Q874.81-27.15 876.01-26.8L876.01-26.8 874.91-20.6Q873.71-20.9 872.56-20.9L872.56-20.9Q870.21-20.9 868.86-19.23 867.51-17.55 866.71-14.1L866.71-14.1 866.71 0 860.31 0 860.31-26.45 865.86-26.45 866.46-21.25Q867.41-24.1 869.21-25.63 871.01-27.15 873.36-27.15L873.36-27.15ZM1000.54-26.45L991.94 0.1Q990.34 5 987.09 7.73 983.84 10.45 978.19 10.9L978.19 10.9 977.54 6.25Q980.14 5.85 981.71 5.13 983.29 4.4 984.24 3.2 985.19 2 985.99 0L985.99 0 983.79 0 975.39-26.45 982.19-26.45 987.94-4.25 993.94-26.45 1000.54-26.45Z" opacity="1" transform="matrix(1,0,0,1,0,0)" fill="#ffffff" class="undefined-text-1" data-fill-palette-color="quaternary" id="text-1"></path></svg></g></svg></g></svg></g></svg></g><g transform="matrix(1,0,0,1,79.28754406877562,0)"><svg viewBox="0 0 54.583353089605886 44.76115853464403" height="44.76115853464403" width="54.583353089605886"><g><svg xmlns="http://www.w3.org/2000/svg" data-name="Layer 1" viewBox="5.091355323791504 13.199922561645508 89.77799224853516 73.62257385253906" x="0" y="0" height="44.76115853464403" width="54.583353089605886" class="icon-icon-0" data-fill-palette-color="quaternary" id="icon-0"><g data-name="Group" fill="#ffffff" data-fill-palette-color="quaternary"><path data-name="Compound Path" d="M94.6 38.3L82.5 18.9a11.9 11.9 0 0 0-10.2-5.7H27.7a11.9 11.9 0 0 0-10.2 5.7L5.4 38.3a2 2 0 0 0 0.2 2.4L48.5 86.2a2 2 0 0 0 2.9 0L94.3 40.7A2 2 0 0 0 94.6 38.3ZM38.2 17.2H61.7L66 37.3H34.2ZM20.9 21a8 8 0 0 1 6.8-3.8h6.4l-4 20.1H10.7ZM11.8 41.3H30.4L44.2 75.7ZM50 79.4L34.7 41.3H65.4Zm5.8-3.6L69.7 41.3H88.2ZM70.1 37.3L65.8 17.2h6.5A8 8 0 0 1 79.1 21L89.3 37.3Z" fill="#ffffff" data-fill-palette-color="quaternary"></path></g></svg></g></svg></g><g></g></svg></g></svg></g></svg></g></svg></g><defs></defs></svg><rect width="342.85155851775386" height="342.85155851775386" fill="none" stroke="none" visibility="hidden"></rect></g></svg></g></svg>